<svg width="18" height="19" viewBox="0 0 18 19" fill="none" xmlns="http://www.w3.org/2000/svg">
<g clip-path="url(#clip0)">
<path d="M9 7.66797C10.6892 7.66797 12.0586 6.22251 12.0586 4.43945C12.0586 2.65639 10.6892 1.21094 9 1.21094C7.31079 1.21094 5.94141 2.65639 5.94141 4.43945C5.94141 6.22251 7.31079 7.66797 9 7.66797Z" fill="#92A2BB"/>
<path d="M15.1875 7.66797C16.2554 7.66797 17.1211 6.75418 17.1211 5.62696C17.1211 4.49973 16.2554 3.58594 15.1875 3.58594C14.1196 3.58594 13.2539 4.49973 13.2539 5.62696C13.2539 6.75418 14.1196 7.66797 15.1875 7.66797Z" fill="#92A2BB"/>
<path d="M2.8125 7.66797C3.88039 7.66797 4.74609 6.75418 4.74609 5.62696C4.74609 4.49973 3.88039 3.58594 2.8125 3.58594C1.74461 3.58594 0.878906 4.49973 0.878906 5.62696C0.878906 6.75418 1.74461 7.66797 2.8125 7.66797Z" fill="#92A2BB"/>
<path d="M4.71762 9.50083C3.95648 8.84259 3.26718 8.92972 2.38711 8.92972C1.07086 8.92972 0 10.0534 0 11.4342V15.4869C0 16.0866 0.463711 16.5743 1.03395 16.5743C3.4958 16.5743 3.19922 16.6213 3.19922 16.4622C3.19922 13.5904 2.87698 11.4844 4.71762 9.50083Z" fill="#92A2BB"/>
<path d="M9.83693 8.94454C8.29976 8.80921 6.96364 8.9461 5.81119 9.95021C3.88262 11.5808 4.25377 13.7763 4.25377 16.4622C4.25377 17.1728 4.8015 17.7617 5.48494 17.7617C12.9058 17.7617 13.2011 18.0144 13.6412 16.9858C13.7855 16.6379 13.746 16.7485 13.746 13.4207C13.746 10.7775 11.5778 8.94454 9.83693 8.94454Z" fill="#92A2BB"/>
<path d="M15.6127 8.92963C14.7279 8.92963 14.0423 8.84339 13.2822 9.50074C15.1091 11.4696 14.8006 13.4319 14.8006 16.4621C14.8006 16.6222 14.5544 16.5742 16.929 16.5742C17.5196 16.5742 17.9998 16.0691 17.9998 15.4483V11.4341C17.9998 10.0533 16.929 8.92963 15.6127 8.92963Z" fill="#92A2BB"/>
</g>
<defs>
<clipPath id="clip0">
<rect width="18" height="19" fill="white"/>
</clipPath>
</defs>
</svg>
