<svg width="18" height="17" viewBox="0 0 18 17" fill="none" xmlns="http://www.w3.org/2000/svg">
<path d="M16.1249 4.64058H15.2809V2.06798C15.2809 0.976769 14.4398 0.0888672 13.4058 0.0888672H4.59384C3.55993 0.0888672 2.71895 0.976769 2.71895 2.06798V4.64065H1.87495C0.839724 4.64058 0 5.52676 0 6.61983V14.9322C0 16.0253 0.83941 16.9112 1.87495 16.9112H16.1249C17.1602 16.9112 18 16.0252 18 14.9322V6.61983C18 5.52676 17.1605 4.64058 16.1249 4.64058ZM12.6908 11.7188C12.6908 12.0349 12.4482 12.2906 12.1491 12.2906H10.4346V14.0993C10.4346 14.4154 10.192 14.6715 9.89294 14.6715H8.10725C7.80815 14.6715 7.56569 14.4154 7.56569 14.0993V12.2906H5.8511C5.55231 12.2906 5.30935 12.0348 5.30935 11.7188V9.83389C5.30935 9.51744 5.55193 9.26177 5.8511 9.26177H7.56556V7.45279C7.56556 7.13707 7.80802 6.88067 8.10713 6.88067H9.89281C10.1919 6.88067 10.4345 7.13707 10.4345 7.45279V9.26177H12.149C12.4481 9.26177 12.6907 9.51751 12.6907 9.83389V11.7188H12.6908ZM13.7813 4.64058H4.21861V2.06798C4.21861 1.84934 4.38696 1.67224 4.59352 1.67224H13.4058C13.6127 1.67224 13.7813 1.84967 13.7813 2.06798V4.64058Z" fill="#92A2BB"/>
</svg>
