<svg width="16" height="17" viewBox="0 0 16 17" fill="none" xmlns="http://www.w3.org/2000/svg">
<g clip-path="url(#clip0)">
<path d="M11.5148 0H1.47314C1.21427 0 1.00439 0.222992 1.00439 0.498047V13.3012C1.00439 13.5763 1.21427 13.7993 1.47314 13.7993H11.5148C11.7737 13.7993 11.9836 13.5763 11.9836 13.3012V0.498047C11.9836 0.222992 11.7737 0 11.5148 0Z" fill="#92A2BB"/>
<path d="M14.527 3.20081H12.9208V13.3012C12.9208 14.1251 12.29 14.7953 11.5145 14.7953H4.0166V16.502C4.0166 16.777 4.22648 17 4.48535 17H14.527C14.7859 17 14.9958 16.777 14.9958 16.502V3.69885C14.9958 3.4238 14.7859 3.20081 14.527 3.20081Z" fill="#92A2BB"/>
</g>
<defs>
<clipPath id="clip0">
<rect width="16" height="17" fill="white"/>
</clipPath>
</defs>
</svg>
