<svg width="16" height="16" viewBox="0 0 16 16" fill="none" xmlns="http://www.w3.org/2000/svg">
<path d="M14 0H2C0.897 0 0 0.897 0 2V11C0 12.103 0.897 13 2 13H3V15.5C3 15.694 3.112 15.871 3.288 15.953C3.355 15.984 3.428 16 3.5 16C3.615 16 3.729 15.96 3.82 15.884L7.281 13H14C15.103 13 16 12.103 16 11V2C16 0.897 15.103 0 14 0ZM8.5 8H4.5C4.224 8 4 7.776 4 7.5C4 7.224 4.224 7 4.5 7H8.5C8.776 7 9 7.224 9 7.5C9 7.776 8.776 8 8.5 8ZM11.5 5H4.5C4.224 5 4 4.776 4 4.5C4 4.224 4.224 4 4.5 4H11.5C11.776 4 12 4.224 12 4.5C12 4.776 11.776 5 11.5 5Z" fill="#92A2BB"/>
</svg>
