<svg width="22" height="22" viewBox="0 0 22 22" fill="none" xmlns="http://www.w3.org/2000/svg">
<path d="M22 6.47217V3.2334C22 2.87745 21.7114 2.58887 21.3555 2.58887H0.644531C0.288578 2.58887 0 2.87745 0 3.2334V6.47217H22Z" fill="#12294A"/>
<path d="M9.70557 11.6499H12.2944C12.6528 11.6499 12.9443 11.3584 12.9443 11C12.9443 10.6416 12.6528 10.3501 12.2944 10.3501H9.70557C9.34721 10.3501 9.05566 10.6416 9.05566 11C9.05566 11.3584 9.34721 11.6499 9.70557 11.6499Z" fill="#12294A"/>
<path d="M1.29443 7.76123V18.7666C1.29443 19.1226 1.58301 19.4111 1.93896 19.4111H20.061C20.417 19.4111 20.7056 19.1226 20.7056 18.7666V7.76123H1.29443ZM9.70557 9.06104H12.2944C13.3636 9.06104 14.2334 9.93085 14.2334 11C14.2334 12.0691 13.3636 12.939 12.2944 12.939H9.70557C8.63642 12.939 7.7666 12.0691 7.7666 11C7.7666 9.93085 8.63642 9.06104 9.70557 9.06104Z" fill="#12294A"/>
</svg>
