<svg width="18" height="19" viewBox="0 0 18 19" fill="none" xmlns="http://www.w3.org/2000/svg">
<path d="M16.1249 5.64058H15.2809V3.06798C15.2809 1.97677 14.4398 1.08887 13.4058 1.08887H4.59384C3.55993 1.08887 2.71895 1.97677 2.71895 3.06798V5.64065H1.87495C0.839724 5.64058 0 6.52676 0 7.61983V15.9322C0 17.0253 0.83941 17.9112 1.87495 17.9112H16.1249C17.1602 17.9112 18 17.0252 18 15.9322V7.61983C18 6.52676 17.1605 5.64058 16.1249 5.64058ZM12.6908 12.7188C12.6908 13.0349 12.4482 13.2906 12.1491 13.2906H10.4346V15.0993C10.4346 15.4154 10.192 15.6715 9.89294 15.6715H8.10725C7.80815 15.6715 7.56569 15.4154 7.56569 15.0993V13.2906H5.8511C5.55231 13.2906 5.30935 13.0348 5.30935 12.7188V10.8339C5.30935 10.5174 5.55193 10.2618 5.8511 10.2618H7.56556V8.45279C7.56556 8.13707 7.80802 7.88067 8.10713 7.88067H9.89281C10.1919 7.88067 10.4345 8.13707 10.4345 8.45279V10.2618H12.149C12.4481 10.2618 12.6907 10.5175 12.6907 10.8339V12.7188H12.6908ZM13.7813 5.64058H4.21861V3.06798C4.21861 2.84934 4.38696 2.67224 4.59352 2.67224H13.4058C13.6127 2.67224 13.7813 2.84967 13.7813 3.06798V5.64058Z" fill="#12294A"/>
</svg>
