<svg width="16" height="17" viewBox="0 0 16 17" fill="none" xmlns="http://www.w3.org/2000/svg">
<g clip-path="url(#clip0)">
<path d="M10.5104 0H0.46875C0.209875 0 0 0.222992 0 0.498047V13.3012C0 13.5763 0.209875 13.7993 0.46875 13.7993H10.5104C10.7693 13.7993 10.9792 13.5763 10.9792 13.3012V0.498047C10.9792 0.222992 10.7693 0 10.5104 0Z" fill="#12294A"/>
<path d="M14.527 3.20081H12.9208V13.3012C12.9208 14.1251 12.29 14.7953 11.5145 14.7953H4.0166V16.502C4.0166 16.777 4.22648 17 4.48535 17H14.527C14.7859 17 14.9958 16.777 14.9958 16.502V3.69885C14.9958 3.4238 14.7859 3.20081 14.527 3.20081Z" fill="#12294A"/>
</g>
<defs>
<clipPath id="clip0">
<rect width="16" height="17" fill="white"/>
</clipPath>
</defs>
</svg>
