<svg width="17" height="23" viewBox="0 0 17 23" fill="none" xmlns="http://www.w3.org/2000/svg">
<path d="M11.2782 0H16.2721C16.5828 0 16.8348 0.251947 16.8348 0.562691V22.4373C16.8348 22.7481 16.5828 23 16.2721 23H11.2782C10.9674 23 10.7155 22.7481 10.7155 22.4373V0.562691C10.7155 0.251947 10.9674 0 11.2782 0Z" fill="white"/>
<path d="M0.72773 0H5.72161C6.03236 0 6.28431 0.251947 6.28431 0.562691V22.4373C6.28431 22.7481 6.03236 23 5.72161 23H0.72773C0.416986 23 0.165039 22.7481 0.165039 22.4373V0.562691C0.165039 0.251947 0.416986 0 0.72773 0Z" fill="white"/>
</svg>
