<svg width="11" height="19" viewBox="0 0 11 19" fill="none" xmlns="http://www.w3.org/2000/svg">
<path d="M5.50013 3.12162C6.36214 3.12162 7.06094 2.42282 7.06094 1.56081C7.06094 0.698798 6.36214 0 5.50013 0C4.63811 0 3.93932 0.698798 3.93932 1.56081C3.93932 2.42282 4.63811 3.12162 5.50013 3.12162Z" fill="#12294A"/>
<path d="M10.3161 10.0051C9.87595 5.0599 7.51924 4.07349 7.51924 4.07349C7.51924 4.07349 5.24159 2.70426 2.84394 4.44811C1.28954 5.86292 0.930583 8.02269 0.68487 10.1088C0.560589 11.1689 2.21862 11.1561 2.34183 10.1088C2.48854 8.86381 2.69793 7.61317 3.31578 6.54806L3.30153 13.5256V18.1076C3.30153 18.6001 3.66262 19 4.16972 19C4.67645 19 5.08775 18.6001 5.08775 18.1076V11.5581H5.89896C5.89896 13.0926 5.89896 16.5949 5.89896 18.1286C5.89896 19.1969 7.55556 19.1969 7.55556 18.1286C7.55556 16.5941 7.55556 15.0593 7.55556 13.5252L7.62572 7.73817C7.62643 7.18585 7.62714 6.69229 7.62714 6.349C8.28914 7.4337 8.50779 8.72208 8.65842 10.0044C8.7827 11.0524 10.4404 11.0653 10.3161 10.0051Z" fill="#12294A"/>
</svg>
