<svg width="14" height="14" viewBox="0 0 14 14" fill="none" xmlns="http://www.w3.org/2000/svg">
<g clip-path="url(#clip0)">
<path d="M13.6209 0.379955C13.3754 0.134299 13.0416 -0.00215755 12.6944 0.00090495L8.49975 0.0378737C8.16047 0.0408487 7.83597 0.176999 7.59605 0.416924L0.37905 7.63397C-0.12635 8.13924 -0.12635 8.95867 0.37905 9.46412L4.53666 13.6216C5.04206 14.1272 5.86145 14.1272 6.36689 13.6216L13.5839 6.40477C13.8238 6.16476 13.9599 5.8403 13.9629 5.50098L14 1.30636C14.003 0.959292 13.8664 0.625349 13.6209 0.379955ZM11.1142 4.97812C10.5366 5.55593 9.60011 5.55584 9.02247 4.97821C8.44489 4.40075 8.44489 3.46429 9.02252 2.88648C9.60015 2.30902 10.5366 2.30911 11.1142 2.88648C11.6918 3.46424 11.6918 4.40067 11.1142 4.97812Z" fill="#707070"/>
</g>
<defs>
<clipPath id="clip0">
<rect width="14" height="14" fill="white"/>
</clipPath>
</defs>
</svg>
